<svg xmlns="http://www.w3.org/2000/svg" width="358" height="61" viewBox="504 353 358 61"><path fill="#FFFFFF" d="m532.516 398.719-12.973 12.972-12.988-12.972 12.988-12.98Zm0 0"/><path fill="#FFFFFF" d="m532.516 398.719-12.973 12.972-12.988-12.972 12.988-12.98Zm-.071-29.348-12.976 12.977-12.977-12.977 12.977-12.98Zm0 0"/><path fill="#FFFFFF" d="m532.445 369.371-12.976 12.977-12.977-12.977 12.977-12.98Zm14.715 14.707-12.98 12.98-12.98-12.98 12.98-12.976Zm0 0"/><path fill="#FFFFFF" d="m547.16 384.078-12.98 12.98-12.98-12.98 12.98-12.976Zm14.707 14.707-12.98 12.98-12.977-12.98 12.977-12.973Zm0 0"/><path fill="#FFFFFF" d="m561.867 398.785-12.98 12.98-12.977-12.98 12.977-12.973Zm-.074-29.34-12.984 12.973-12.973-12.973 12.973-12.984Zm0 0"/><path fill="#FFFFFF" d="m561.793 369.445-12.984 12.973-12.973-12.973 12.973-12.984Zm29.871 29.274-12.98 12.972-12.98-12.972 12.98-12.98Zm0 0"/><path fill="#FFFFFF" d="m591.664 398.719-12.98 12.972-12.98-12.972 12.98-12.98Zm-.074-29.348-12.98 12.977-12.985-12.977 12.984-12.98Zm0 0"/><path fill="#FFFFFF" d="m591.59 369.371-12.98 12.977-12.985-12.977 12.984-12.98Zm14.707 14.707-12.98 12.98-12.97-12.98 12.97-12.976Zm0 0"/><path fill="#FFFFFF" d="m606.297 384.078-12.98 12.98-12.97-12.98 12.97-12.976Zm14.715 14.707-12.98 12.98-12.985-12.98 12.984-12.973Zm0 0"/><path fill="#FFFFFF" d="m621.012 398.785-12.98 12.98-12.985-12.98 12.984-12.973Zm-.082-29.34-12.977 12.973-12.969-12.973 12.97-12.984Zm0 0"/><path fill="#FFFFFF" d="m620.93 369.445-12.977 12.973-12.969-12.973 12.97-12.984Zm28.812 29.317-12.98 12.968-12.98-12.968 12.98-12.98Zm0 0"/><path fill="#FFFFFF" d="m649.742 398.762-12.98 12.968-12.98-12.968 12.98-12.98Zm-.07-29.344-12.98 12.973-12.981-12.973 12.98-12.98Zm0 0"/><path fill="#FFFFFF" d="m649.672 369.418-12.98 12.973-12.981-12.973 12.98-12.98Zm176.523 4.961h9.836v12.016l10.29-12.016h13.054l-11.59 11.996 12.11 19.8h-12.098l-6.688-13.054-5.078 5.324v7.73h-9.836Zm0 0"/><path fill="#FFFFFF" d="M826.195 374.379h9.836v12.016l10.29-12.016h13.054l-11.59 11.996 12.11 19.8h-12.098l-6.688-13.054-5.078 5.324v7.73h-9.836Zm-157.492-8.891 1.563.477a2.9 2.9 0 0 1-.5 1.098c-.223.289-.5.515-.836.664-.332.148-.762.222-1.278.222-.629 0-1.136-.094-1.535-.273q-.597-.27-1.031-.961c-.285-.457-.43-1.047-.43-1.762q.001-1.43.758-2.2c.508-.51 1.23-.769 2.156-.769q1.09.001 1.715.442.621.438.926 1.351l-1.57.352a1.5 1.5 0 0 0-.176-.383.95.95 0 0 0-.367-.316 1.05 1.05 0 0 0-.48-.114c-.411 0-.716.164-.93.485-.165.246-.243.62-.243 1.14q0 .96.285 1.317c.196.234.47.355.82.355q.51.002.774-.285.26-.291.38-.84"/><path fill="#FFFFFF" d="m668.703 365.488 1.563.477a2.9 2.9 0 0 1-.5 1.098c-.223.289-.5.515-.836.664-.332.148-.762.222-1.278.222-.629 0-1.136-.094-1.535-.273q-.597-.27-1.031-.961c-.285-.457-.43-1.047-.43-1.762q.001-1.43.758-2.2c.508-.51 1.23-.769 2.156-.769q1.09.001 1.715.442.621.438.926 1.351l-1.57.352a1.5 1.5 0 0 0-.176-.383.95.95 0 0 0-.367-.316 1.05 1.05 0 0 0-.48-.114c-.411 0-.716.164-.93.485-.165.246-.243.62-.243 1.14q0 .96.285 1.317c.196.234.47.355.82.355q.51.002.774-.285.26-.291.38-.84m6.855-3.406h5.418v1.426h-1.817v4.344h-1.785v-4.344h-1.816Zm0 0"/><path fill="#FFFFFF" d="M675.559 362.082h5.418v1.426h-1.817v4.344h-1.785v-4.344h-1.816Zm12.839 2.461h.438q.512 0 .719-.18a.58.58 0 0 0 .21-.46.62.62 0 0 0-.18-.458q-.18-.192-.679-.191h-.508Zm-1.793-2.461h2.961q.968-.001 1.454.461c.32.309.48.742.48 1.309 0 .586-.176 1.039-.523 1.367-.356.328-.887.492-1.606.492h-.973v2.14h-1.793Zm0 0"/><path fill="#FFFFFF" d="M688.398 364.543h.438q.512 0 .719-.18a.58.58 0 0 0 .21-.46.62.62 0 0 0-.18-.458q-.18-.192-.679-.191h-.508Zm-1.793-2.461h2.961q.968-.001 1.454.461c.32.309.48.742.48 1.309 0 .586-.176 1.039-.523 1.367-.356.328-.887.492-1.606.492h-.973v2.14h-1.793Zm13.505 3.57-.633-2.074-.633 2.074Zm.374 1.246h-2.023l-.285.954h-1.82l2.171-5.77h1.946l2.164 5.77h-1.867Zm0 0"/><path fill="#FFFFFF" d="m700.11 365.652-.633-2.074-.633 2.074Zm.374 1.246h-2.023l-.285.954h-1.82l2.171-5.77h1.946l2.164 5.77h-1.867Zm6.996-4.816h1.965l1.02 1.77.996-1.77h1.941l-1.793 2.797 1.961 2.973h-2.004L710.43 366l-1.14 1.852h-1.99l1.99-3.004Zm0 0"/><path fill="#FFFFFF" d="M707.48 362.082h1.965l1.02 1.77.996-1.77h1.941l-1.793 2.797 1.961 2.973h-2.004L710.43 366l-1.14 1.852h-1.99l1.99-3.004Zm13.055 2.898c0 .582.106 1 .328 1.254q.318.382.875.383.58 0 .89-.375c.212-.25.317-.695.317-1.344q-.002-.81-.332-1.187-.327-.375-.89-.375-.536-.001-.86.379c-.222.258-.328.676-.328 1.265m-1.785-.007q-.002-1.413.793-2.2.781-.79 2.184-.789c.96 0 1.699.258 2.226.774q.769.773.77 2.168c0 .672-.106 1.222-.336 1.656-.23.43-.555.77-.985 1.008s-.96.36-1.601.36q-.98.001-1.614-.31a2.44 2.44 0 0 1-1.039-.984c-.261-.449-.398-1.011-.398-1.683"/><path fill="#FFFFFF" d="M720.535 364.98c0 .582.106 1 .328 1.254q.318.382.875.383.58 0 .89-.375c.212-.25.317-.695.317-1.344q-.002-.81-.332-1.187-.327-.375-.89-.375-.536-.001-.86.379c-.222.258-.328.676-.328 1.265m-1.785-.007q-.002-1.413.793-2.2.781-.79 2.184-.789c.96 0 1.699.258 2.226.774q.769.773.77 2.168c0 .672-.106 1.222-.336 1.656-.23.43-.555.77-.985 1.008s-.96.36-1.601.36q-.98.001-1.614-.31a2.44 2.44 0 0 1-1.039-.984c-.261-.449-.398-1.011-.398-1.683m13.57 1.64h.903q.462 0 .656-.164a.55.55 0 0 0 .187-.437.52.52 0 0 0-.187-.414c-.125-.102-.348-.157-.656-.157h-.903Zm0-2.265h.774c.281 0 .476-.051.582-.145.113-.098.164-.23.164-.414 0-.172-.05-.3-.164-.394-.106-.098-.301-.149-.57-.149h-.786Zm-1.8-2.266h3.335q.838.002 1.282.414c.304.277.449.617.449 1.024 0 .343-.106.632-.324.878-.133.164-.344.293-.614.387.41.102.72.27.91.512.196.246.297.547.297.914q.001.451-.214.805a1.5 1.5 0 0 1-.567.57c-.148.086-.375.152-.68.187a7 7 0 0 1-.796.079h-3.078Zm0 0"/><path fill="#FFFFFF" d="M732.32 366.613h.903q.462 0 .656-.164a.55.55 0 0 0 .187-.437.52.52 0 0 0-.187-.414c-.125-.102-.348-.157-.656-.157h-.903Zm0-2.265h.774c.281 0 .476-.051.582-.145.113-.098.164-.23.164-.414 0-.172-.05-.3-.164-.394-.106-.098-.301-.149-.57-.149h-.786Zm-1.8-2.266h3.335q.838.002 1.282.414c.304.277.449.617.449 1.024 0 .343-.106.632-.324.878-.133.164-.344.293-.614.387.41.102.72.27.91.512.196.246.297.547.297.914q.001.451-.214.805a1.5 1.5 0 0 1-.567.57c-.148.086-.375.152-.68.187a7 7 0 0 1-.796.079h-3.078Zm14.27 3.57-.638-2.074-.632 2.074Zm.37 1.246h-2.023l-.285.954h-1.82l2.167-5.77h1.946l2.168 5.77h-1.868Zm0 0"/><path fill="#FFFFFF" d="m744.79 365.652-.638-2.074-.632 2.074Zm.37 1.246h-2.023l-.285.954h-1.82l2.167-5.77h1.946l2.168 5.77h-1.868Zm10.86-3.652h-.782q-.485 0-.66.149-.18.152-.18.433a.55.55 0 0 0 .11.336.48.48 0 0 0 .293.18c.234.054.386.078.469.078h.75Zm0 4.606v-2.34h-.157a.74.74 0 0 0-.437.133c-.094.07-.207.218-.324.445l-.95 1.762h-2.007l.851-1.672q.067-.125.25-.356a1.7 1.7 0 0 1 .285-.304c.102-.07.254-.141.465-.211a2.4 2.4 0 0 1-.625-.227 1.6 1.6 0 0 1-.555-.57c-.148-.23-.21-.504-.21-.828 0-.368.093-.676.269-.934q.27-.382.703-.523.438-.143 1.262-.145h2.969v5.77Zm0 0"/><path fill="#FFFFFF" d="M756.02 363.246h-.782q-.485 0-.66.149-.18.152-.18.433a.55.55 0 0 0 .11.336.48.48 0 0 0 .293.18c.234.054.386.078.469.078h.75Zm0 4.606v-2.34h-.157a.74.74 0 0 0-.437.133c-.094.07-.207.218-.324.445l-.95 1.762h-2.007l.851-1.672q.067-.125.25-.356a1.7 1.7 0 0 1 .285-.304c.102-.07.254-.141.465-.211a2.4 2.4 0 0 1-.625-.227 1.6 1.6 0 0 1-.555-.57c-.148-.23-.21-.504-.21-.828 0-.368.093-.676.269-.934q.27-.382.703-.523.438-.143 1.262-.145h2.969v5.77Zm15.332-5.77h1.789v2.18l1.867-2.18h2.367l-2.11 2.176 2.208 3.594h-2.196l-1.218-2.368-.918.961v1.407h-1.79Zm0 0"/><path fill="#FFFFFF" d="M771.352 362.082h1.789v2.18l1.867-2.18h2.367l-2.11 2.176 2.208 3.594h-2.196l-1.218-2.368-.918.961v1.407h-1.79Zm13.105 2.898q0 .873.316 1.254c.215.254.512.383.883.383.38 0 .68-.125.887-.375.21-.25.312-.695.312-1.344 0-.539-.105-.937-.328-1.187q-.323-.375-.886-.375-.54-.001-.868.379c-.21.258-.316.676-.316 1.265m-1.789-.007q0-1.413.785-2.2.787-.79 2.188-.789 1.445 0 2.222.774.779.773.778 2.168 0 1.007-.34 1.656c-.227.43-.555.77-.985 1.008-.425.238-.964.36-1.597.36-.657 0-1.192-.102-1.617-.31a2.46 2.46 0 0 1-1.04-.984q-.393-.674-.394-1.683"/><path fill="#FFFFFF" d="M784.457 364.98q0 .873.316 1.254c.215.254.512.383.883.383.38 0 .68-.125.887-.375.21-.25.312-.695.312-1.344 0-.539-.105-.937-.328-1.187q-.323-.375-.886-.375-.54-.001-.868.379c-.21.258-.316.676-.316 1.265m-1.789-.007q0-1.413.785-2.2.787-.79 2.188-.789 1.445 0 2.222.774.779.773.778 2.168 0 1.007-.34 1.656c-.227.43-.555.77-.985 1.008-.425.238-.964.36-1.597.36-.657 0-1.192-.102-1.617-.31a2.46 2.46 0 0 1-1.04-.984q-.393-.674-.394-1.683m11.746-2.891h2.344l.902 3.508.895-3.508h2.343v5.77h-1.46v-4.399l-1.118 4.399h-1.324l-1.121-4.399v4.399h-1.46Zm0 0"/><path fill="#FFFFFF" d="M794.414 362.082h2.344l.902 3.508.895-3.508h2.343v5.77h-1.46v-4.399l-1.118 4.399h-1.324l-1.121-4.399v4.399h-1.46Zm17.981 5.77h-1.782V363.5h-1.96v4.352h-1.778v-5.77h5.52Zm0 0"/><path fill="#FFFFFF" d="M812.395 367.852h-1.782V363.5h-1.96v4.352h-1.778v-5.77h5.52Zm9.187-2.2-.637-2.074-.633 2.074Zm.371 1.246h-2.02l-.288.954h-1.82l2.171-5.77h1.945l2.164 5.77h-1.863Zm0 0"/><path fill="#FFFFFF" d="m821.582 365.652-.637-2.074-.633 2.074Zm.371 1.246h-2.02l-.288.954h-1.82l2.171-5.77h1.945l2.164 5.77h-1.863Zm7.563-4.816h1.785v2.02h1.945v-2.02h1.79v5.77h-1.79v-2.332h-1.945v2.332h-1.785Zm0 0"/><path fill="#FFFFFF" d="M829.516 362.082h1.785v2.02h1.945v-2.02h1.79v5.77h-1.79v-2.332h-1.945v2.332h-1.785Zm17.058 0v5.77h-1.68v-3.168l-2.16 3.168h-1.683v-5.77h1.68v3.195l2.18-3.195Zm0 0"/><path fill="#FFFFFF" d="M846.574 362.082v5.77h-1.68v-3.168l-2.16 3.168h-1.683v-5.77h1.68v3.195l2.18-3.195Zm9.321 1.164h-.778q-.487 0-.664.149c-.121.101-.176.246-.176.433a.6.6 0 0 0 .114.336.47.47 0 0 0 .289.18c.234.054.386.078.468.078h.747Zm0 4.606v-2.34h-.157a.72.72 0 0 0-.43.133q-.145.105-.328.445l-.945 1.762h-2.02l.864-1.672q.065-.125.246-.356c.133-.156.223-.262.29-.304q.144-.105.464-.211a2.3 2.3 0 0 1-.621-.227 1.65 1.65 0 0 1-.567-.57q-.203-.344-.203-.828c0-.368.086-.676.266-.934.183-.254.41-.43.703-.523q.435-.143 1.262-.145h2.968v5.77Zm0 0"/><path fill="#FFFFFF" d="M855.895 363.246h-.778q-.487 0-.664.149c-.121.101-.176.246-.176.433a.6.6 0 0 0 .114.336.47.47 0 0 0 .289.18c.234.054.386.078.468.078h.747Zm0 4.606v-2.34h-.157a.72.72 0 0 0-.43.133q-.145.105-.328.445l-.945 1.762h-2.02l.864-1.672q.065-.125.246-.356c.133-.156.223-.262.29-.304q.144-.105.464-.211a2.3 2.3 0 0 1-.621-.227 1.65 1.65 0 0 1-.567-.57q-.203-.344-.203-.828c0-.368.086-.676.266-.934.183-.254.41-.43.703-.523q.435-.143 1.262-.145h2.968v5.77Zm-102.922 21.546-2.02 2.016-2.023-2.016 2.023-2.023Zm0 0"/><path fill="#FFFFFF" d="m752.973 389.398-2.02 2.016-2.023-2.016 2.023-2.023Zm-74.594 16.614h-4.555v-11.149h-5.023v11.149h-4.555v-14.778h14.133Zm0 0"/><path fill="#FFFFFF" d="M678.379 406.012h-4.555v-11.149h-5.023v11.149h-4.555v-14.778h14.133Zm1.996-14.782h12.223v3.153h-7.653v2.344h7.114v3.02h-7.114v2.913h7.883v3.348h-12.453Zm0 0"/><path fill="#FFFFFF" d="M680.375 391.23h12.223v3.153h-7.653v2.344h7.114v3.02h-7.114v2.913h7.883v3.348h-12.453Zm18.441 6.301h1.118c.875 0 1.492-.156 1.851-.457.352-.308.535-.699.535-1.176q-.002-.7-.46-1.18c-.313-.32-.891-.488-1.747-.488h-1.297Zm-4.59-6.3h7.59c1.653 0 2.891.398 3.715 1.18.824.784 1.23 1.901 1.23 3.355q0 2.232-1.343 3.492-1.344 1.256-4.106 1.258h-2.496v5.492h-4.59Zm0 0"/><path fill="#FFFFFF" d="M698.816 397.531h1.118c.875 0 1.492-.156 1.851-.457.352-.308.535-.699.535-1.176q-.002-.7-.46-1.18c-.313-.32-.891-.488-1.747-.488h-1.297Zm-4.59-6.3h7.59c1.653 0 2.891.398 3.715 1.18.824.784 1.23 1.901 1.23 3.355q0 2.232-1.343 3.492-1.344 1.256-4.106 1.258h-2.496v5.492h-4.59Zm18.512 11.609h2.328q1.18 0 1.66-.414.486-.42.485-1.13 0-.648-.477-1.058c-.316-.261-.882-.394-1.68-.394h-2.316Zm0-5.817h1.98c.716 0 1.208-.12 1.485-.367.277-.25.422-.597.422-1.066 0-.43-.145-.77-.422-1.008q-.414-.359-1.45-.36h-2.015Zm-4.601-5.789h8.539q2.135 0 3.273 1.059c.766.707 1.149 1.578 1.149 2.621 0 .867-.274 1.617-.817 2.242q-.543.626-1.597.989c1.066.257 1.847.69 2.347 1.316.5.625.754 1.402.754 2.344a4.03 4.03 0 0 1-.539 2.066 3.9 3.9 0 0 1-1.457 1.45q-.574.34-1.734.491-1.537.2-2.043.2h-7.875Zm0 0"/><path fill="#FFFFFF" d="M712.738 402.84h2.328q1.18 0 1.66-.414.486-.42.485-1.13 0-.648-.477-1.058c-.316-.261-.882-.394-1.68-.394h-2.316Zm0-5.817h1.98c.716 0 1.208-.12 1.485-.367.277-.25.422-.597.422-1.066 0-.43-.145-.77-.422-1.008q-.414-.359-1.45-.36h-2.015Zm-4.601-5.789h8.539q2.135 0 3.273 1.059c.766.707 1.149 1.578 1.149 2.621 0 .867-.274 1.617-.817 2.242q-.543.626-1.597.989c1.066.257 1.847.69 2.347 1.316.5.625.754 1.402.754 2.344a4.03 4.03 0 0 1-.539 2.066 3.9 3.9 0 0 1-1.457 1.45q-.574.34-1.734.491-1.537.2-2.043.2h-7.875Zm29.742-.004h4.57v14.778h-4.57Zm-10.164 11.61h2.34q2.144 0 2.144-1.55 0-1.36-2.144-1.36h-2.34Zm0-5.899h2.437c2.243 0 3.899.395 4.98 1.18q1.63 1.185 1.63 3.68c0 1.367-.5 2.406-1.492 3.129-.993.718-2.41 1.082-4.266 1.082h-7.852V391.23h4.563Zm0 0"/><path fill="#FFFFFF" d="M737.879 391.23h4.57v14.778h-4.57Zm-10.164 11.61h2.34q2.144 0 2.144-1.55 0-1.36-2.144-1.36h-2.34Zm0-5.899h2.437c2.243 0 3.899.395 4.98 1.18q1.63 1.185 1.63 3.68c0 1.367-.5 2.406-1.492 3.129-.993.718-2.41 1.082-4.266 1.082h-7.852V391.23h4.563Zm26.598-5.711-5.56 8.18v-8.18h-4.3v14.778h4.313l5.515-8.113v8.113h4.29V391.23Zm0 0"/><path fill="#FFFFFF" d="m754.313 391.23-5.56 8.18v-8.18h-4.3v14.778h4.313l5.515-8.113v8.113h4.29V391.23Zm19.57 8.098h5c1.687 0 2.879-.305 3.574-.902.691-.606 1.035-1.41 1.035-2.422q0-1.414-1.023-2.27c-.688-.566-1.89-.855-3.61-.855h-4.976Zm0-12.512h4.262c1.523 0 2.59-.261 3.187-.793.602-.523.898-1.289.898-2.285 0-.922-.296-1.644-.898-2.168q-.896-.78-3.129-.78h-4.32Zm-9.887-12.445h18.352c3.054 0 5.402.754 7.039 2.274q2.46 2.281 2.46 5.628c0 1.88-.585 3.489-1.757 4.836-.781.891-1.914 1.602-3.422 2.114 2.277.55 3.965 1.496 5.035 2.836q1.617 2.003 1.617 5.039.002 2.472-1.144 4.445a8.43 8.43 0 0 1-3.137 3.117c-.824.48-2.066.832-3.726 1.047-2.211.281-3.668.43-4.391.43h-16.926Zm0 0"/><path fill="#FFFFFF" d="M773.883 399.328h5c1.687 0 2.879-.305 3.574-.902.691-.606 1.035-1.41 1.035-2.422q0-1.414-1.023-2.27c-.688-.566-1.89-.855-3.61-.855h-4.976Zm0-12.512h4.262c1.523 0 2.59-.261 3.187-.793.602-.523.898-1.289.898-2.285 0-.922-.296-1.644-.898-2.168q-.896-.78-3.129-.78h-4.32Zm-9.887-12.445h18.352c3.054 0 5.402.754 7.039 2.274q2.46 2.281 2.46 5.628c0 1.88-.585 3.489-1.757 4.836-.781.891-1.914 1.602-3.422 2.114 2.277.55 3.965 1.496 5.035 2.836q1.617 2.003 1.617 5.039.002 2.472-1.144 4.445a8.43 8.43 0 0 1-3.137 3.117c-.824.48-2.066.832-3.726 1.047-2.211.281-3.668.43-4.391.43h-16.926Zm32.223 0h26.277v6.777h-16.453v5.036h15.281v6.48h-15.281v6.274h16.941v7.199H796.22Zm0 0"/><path fill="#FFFFFF" d="M796.219 374.371h26.277v6.777h-16.453v5.036h15.281v6.48h-15.281v6.274h16.941v7.199H796.22Zm-114.359 8.895h1.835q.93 0 1.305-.332c.258-.223.383-.516.383-.887 0-.344-.125-.625-.375-.832q-.375-.315-1.324-.313h-1.825Zm0-4.586h1.562q.839.002 1.168-.29c.222-.195.328-.472.328-.843 0-.336-.106-.602-.328-.79q-.33-.287-1.145-.288h-1.586Zm-3.63-4.567h6.73q1.683 0 2.587.832c.598.563.902 1.25.902 2.07 0 .684-.215 1.278-.648 1.77-.281.324-.703.59-1.25.781q1.25.298 1.844 1.036c.394.492.59 1.105.59 1.851q.002.904-.419 1.625a3.1 3.1 0 0 1-1.152 1.149c-.3.171-.754.3-1.363.375-.809.109-1.344.168-1.614.168h-6.207Zm0 0"/><path fill="#FFFFFF" d="M681.86 383.266h1.835q.93 0 1.305-.332c.258-.223.383-.516.383-.887 0-.344-.125-.625-.375-.832q-.375-.315-1.324-.313h-1.825Zm0-4.586h1.562c.558 0 .95-.094 1.168-.29.222-.195.328-.472.328-.843 0-.336-.106-.602-.328-.79q-.33-.287-1.145-.288h-1.586Zm-3.63-4.567h6.73q1.683 0 2.587.832c.598.563.902 1.25.902 2.07 0 .684-.215 1.278-.648 1.77-.281.324-.703.59-1.25.781q1.25.298 1.844 1.036c.394.492.59 1.105.59 1.851q.002.904-.419 1.625a3.1 3.1 0 0 1-1.152 1.149c-.3.171-.754.3-1.363.375-.809.109-1.344.168-1.614.168h-6.207Zm17.88 7.211-1.282-4.187-1.273 4.187Zm.75 2.512h-4.079l-.57 1.934h-3.672l4.367-11.657h3.93l4.375 11.657h-3.766Zm0 0"/><path fill="#FFFFFF" d="m696.11 381.324-1.282-4.187-1.273 4.187Zm.75 2.512h-4.079l-.57 1.934h-3.672l4.367-11.657h3.93l4.375 11.657h-3.766Zm36.363-2.512-1.282-4.187-1.273 4.187Zm.75 2.512h-4.078l-.575 1.934h-3.672l4.372-11.657h3.933l4.371 11.657h-3.765Zm0 0"/><path fill="#FFFFFF" d="m733.223 381.324-1.282-4.187-1.273 4.187Zm.75 2.512h-4.078l-.575 1.934h-3.672l4.372-11.657h3.933l4.371 11.657h-3.765Zm2.449-9.723h10.937v2.875h-3.664v8.782h-3.601v-8.782h-3.672Zm0 0"/><path fill="#FFFFFF" d="M736.422 374.113h10.937v2.875h-3.664v8.782h-3.601v-8.782h-3.672Zm15.355 9.153h1.84q1.695.001 1.696-1.227c0-.71-.567-1.07-1.696-1.07h-1.84Zm0-4.653h1.922c1.766 0 3.07.309 3.926.93q1.278.939 1.277 2.902c0 1.078-.386 1.895-1.172 2.465-.78.57-1.902.86-3.367.86h-6.18v-11.657h3.594Zm0 0"/><path fill="#FFFFFF" d="M751.777 383.266h1.84q1.695.001 1.696-1.227c0-.71-.567-1.07-1.696-1.07h-1.84Zm0-4.653h1.922c1.766 0 3.07.309 3.926.93q1.278.939 1.277 2.902c0 1.078-.386 1.895-1.172 2.465-.78.57-1.902.86-3.367.86h-6.18v-11.657h3.594Zm-28.261 7.157h2.898l.703-2.688h-1.965v-8.965h-3.593v8.781h-3.954v-8.78h-3.59v11.652Zm0 0"/><path fill="#FFFFFF" d="M723.516 385.77h2.898l.703-2.688h-1.965v-8.965h-3.593v8.781h-3.954v-8.78h-3.59v11.652Zm-17.864-8.645v-.148h2.887v6.105h-3.7c.54-2.363.813-4.344.813-5.957m-2.586 8.645h10.336v-2.688h-1.261v-8.969h-9.758v2.602q.001 3.541-1.012 6.367h-1.2v2.688Zm0 0"/><path fill="#FFFFFF" d="M705.652 377.125v-.148h2.887v6.105h-3.7c.54-2.363.813-4.344.813-5.957m-2.586 8.645h10.336v-2.688h-1.261v-8.969h-9.758v2.602q.001 3.541-1.012 6.367h-1.2v2.688Zm-33.191-8.645v-.148h2.883v6.105h-3.7c.544-2.363.817-4.344.817-5.957m-2.586 8.645h11.746v-2.688h-2.672v-8.969h-9.761v2.602q-.001 3.541-1.004 6.367h-1.203v2.688Zm0 0"/><path fill="#FFFFFF" d="M669.875 377.125v-.148h2.883v6.105h-3.7c.544-2.363.817-4.344.817-5.957m-2.586 8.645h11.746v-2.688h-2.672v-8.969h-9.761v2.602q-.001 3.541-1.004 6.367h-1.203v2.688Zm-134.773 12.949-12.973 12.972-12.988-12.972 12.988-12.98Zm-.071-29.348-12.976 12.977-12.977-12.977 12.977-12.98Zm14.715 14.707-12.98 12.98-12.98-12.98 12.98-12.976Zm14.707 14.707-12.98 12.98-12.977-12.98 12.977-12.973Zm-.074-29.34-12.984 12.973-12.973-12.973 12.973-12.984Zm29.871 29.274-12.98 12.972-12.98-12.972 12.98-12.98Zm-.074-29.348-12.98 12.977-12.985-12.977 12.984-12.98Zm14.707 14.707-12.98 12.98-12.97-12.98 12.97-12.976Zm14.715 14.707-12.98 12.98-12.985-12.98 12.984-12.973Zm-.082-29.34-12.977 12.973-12.969-12.973 12.97-12.984Zm28.812 29.317-12.98 12.968-12.98-12.968 12.98-12.98Zm-.07-29.344-12.98 12.973-12.981-12.973 12.98-12.98Zm176.523 4.961h9.836v12.016l10.29-12.016h13.054l-11.59 11.996 12.11 19.8h-12.098l-6.688-13.054-5.078 5.324v7.73h-9.836Zm-157.492-8.891 1.563.477a2.9 2.9 0 0 1-.5 1.098c-.223.289-.5.515-.836.664-.332.148-.762.222-1.278.222-.629 0-1.136-.094-1.535-.273q-.597-.27-1.031-.961c-.285-.457-.43-1.047-.43-1.762q.001-1.43.758-2.2c.508-.51 1.23-.769 2.156-.769q1.09.001 1.715.442.621.438.926 1.351l-1.57.352a1.5 1.5 0 0 0-.176-.383.95.95 0 0 0-.367-.316 1.05 1.05 0 0 0-.48-.114c-.411 0-.716.164-.93.485-.165.246-.243.62-.243 1.14q0 .96.285 1.317c.196.234.47.355.82.355q.51.002.774-.285.26-.291.38-.84m6.855-3.406h5.418v1.426h-1.817v4.344h-1.785v-4.344h-1.816Zm12.839 2.461h.438q.512 0 .719-.18a.58.58 0 0 0 .21-.46.62.62 0 0 0-.18-.458q-.18-.192-.679-.191h-.508Zm-1.793-2.461h2.961q.968-.001 1.454.461c.32.309.48.742.48 1.309 0 .586-.176 1.039-.523 1.367-.356.328-.887.492-1.606.492h-.973v2.14h-1.793Zm13.505 3.57-.633-2.074-.633 2.074Zm.374 1.246h-2.023l-.285.954h-1.82l2.171-5.77h1.946l2.164 5.77h-1.867Zm6.996-4.816h1.965l1.02 1.77.996-1.77h1.941l-1.793 2.797 1.961 2.973h-2.004L710.43 366l-1.14 1.852h-1.99l1.99-3.004Zm13.055 2.898c0 .582.106 1 .328 1.254q.318.382.875.383.58 0 .89-.375c.212-.25.317-.695.317-1.344q-.002-.81-.332-1.187-.327-.375-.89-.375-.536-.001-.86.379c-.222.258-.328.676-.328 1.265m-1.785-.007q-.002-1.413.793-2.2.781-.79 2.184-.789c.96 0 1.699.258 2.226.774q.769.773.77 2.168c0 .672-.106 1.222-.336 1.656-.23.43-.555.77-.985 1.008s-.96.36-1.601.36q-.98.001-1.614-.31a2.44 2.44 0 0 1-1.039-.984c-.261-.449-.398-1.011-.398-1.683m13.57 1.64h.903q.462 0 .656-.164a.55.55 0 0 0 .187-.437.52.52 0 0 0-.187-.414c-.125-.102-.348-.157-.656-.157h-.903Zm0-2.265h.774c.281 0 .476-.051.582-.145.113-.098.164-.23.164-.414 0-.172-.05-.3-.164-.394-.106-.098-.301-.149-.57-.149h-.786Zm-1.8-2.266h3.335q.838.002 1.282.414c.304.277.449.617.449 1.024 0 .343-.106.632-.324.878-.133.164-.344.293-.614.387.41.102.72.27.91.512.196.246.297.547.297.914q.001.451-.214.805a1.5 1.5 0 0 1-.567.57c-.148.086-.375.152-.68.187a7 7 0 0 1-.796.079h-3.078Zm14.27 3.57-.638-2.074-.632 2.074Zm.37 1.246h-2.023l-.285.954h-1.82l2.167-5.77h1.946l2.168 5.77h-1.868Zm10.86-3.652h-.782q-.485 0-.66.149-.18.152-.18.433a.55.55 0 0 0 .11.336.48.48 0 0 0 .293.18c.234.054.386.078.469.078h.75Zm0 4.606v-2.34h-.157a.74.74 0 0 0-.437.133c-.094.07-.207.218-.324.445l-.95 1.762h-2.007l.851-1.672q.067-.125.25-.356a1.7 1.7 0 0 1 .285-.304c.102-.07.254-.141.465-.211a2.4 2.4 0 0 1-.625-.227 1.6 1.6 0 0 1-.555-.57c-.148-.23-.21-.504-.21-.828 0-.368.093-.676.269-.934q.27-.382.703-.523.438-.143 1.262-.145h2.969v5.77Zm15.332-5.77h1.789v2.18l1.867-2.18h2.367l-2.11 2.176 2.208 3.594h-2.196l-1.218-2.368-.918.961v1.407h-1.79Zm13.105 2.898q0 .873.316 1.254.324.382.883.383c.38 0 .68-.125.887-.375.21-.25.312-.695.312-1.344 0-.539-.105-.937-.328-1.187q-.323-.375-.886-.375-.54-.001-.868.379c-.21.258-.316.676-.316 1.265m-1.789-.007q0-1.413.785-2.2.787-.79 2.188-.789 1.445 0 2.222.774.779.773.778 2.168 0 1.007-.34 1.656c-.227.43-.555.77-.985 1.008-.425.238-.964.36-1.597.36-.657 0-1.192-.102-1.617-.31a2.46 2.46 0 0 1-1.04-.984q-.393-.674-.394-1.683m11.746-2.891h2.344l.902 3.508.895-3.508h2.343v5.77h-1.46v-4.399l-1.118 4.399h-1.324l-1.121-4.399v4.399h-1.46Zm17.981 5.77h-1.782V363.5h-1.96v4.352h-1.778v-5.77h5.52Zm9.187-2.2-.637-2.074-.633 2.074Zm.371 1.246h-2.02l-.288.954h-1.82l2.171-5.77h1.945l2.164 5.77h-1.863Zm7.563-4.816h1.785v2.02h1.945v-2.02h1.79v5.77h-1.79v-2.332h-1.945v2.332h-1.785Zm17.058 0v5.77h-1.68v-3.168l-2.16 3.168h-1.683v-5.77h1.68v3.195l2.18-3.195Zm9.321 1.164h-.778q-.487 0-.664.149c-.121.101-.176.246-.176.433a.6.6 0 0 0 .114.336.47.47 0 0 0 .289.18c.234.054.386.078.468.078h.747Zm0 4.606v-2.34h-.157a.72.72 0 0 0-.43.133q-.145.105-.328.445l-.945 1.762h-2.02l.864-1.672q.065-.125.246-.356c.133-.156.223-.262.29-.304q.144-.105.464-.211a2.3 2.3 0 0 1-.621-.227 1.65 1.65 0 0 1-.567-.57q-.203-.344-.203-.828c0-.368.086-.676.266-.934.183-.254.41-.43.703-.523q.435-.143 1.262-.145h2.968v5.77Zm-102.922 21.546-2.02 2.016-2.023-2.016 2.023-2.023Zm-74.594 16.614h-4.555v-11.149h-5.023v11.149h-4.555v-14.778h14.133Zm1.996-14.782h12.223v3.153h-7.653v2.344h7.114v3.02h-7.114v2.913h7.883v3.348h-12.453Zm18.441 6.301h1.118c.875 0 1.492-.156 1.851-.457.352-.308.535-.699.535-1.176q-.002-.7-.46-1.18c-.313-.32-.891-.488-1.747-.488h-1.297Zm-4.59-6.3h7.59c1.653 0 2.891.398 3.715 1.18.824.784 1.23 1.901 1.23 3.355q0 2.232-1.343 3.492-1.344 1.256-4.106 1.258h-2.496v5.492h-4.59Zm18.512 11.609h2.328q1.18 0 1.66-.414.486-.42.485-1.13 0-.648-.477-1.058c-.316-.261-.882-.394-1.68-.394h-2.316Zm0-5.817h1.98c.716 0 1.208-.12 1.485-.367.277-.25.422-.597.422-1.066 0-.43-.145-.77-.422-1.008q-.414-.359-1.45-.36h-2.015Zm-4.601-5.789h8.539q2.135 0 3.273 1.059c.766.707 1.149 1.578 1.149 2.621q-.001 1.303-.817 2.242-.543.626-1.597.989c1.066.257 1.847.69 2.347 1.316.5.625.754 1.402.754 2.344a4.03 4.03 0 0 1-.539 2.066 3.9 3.9 0 0 1-1.457 1.45q-.574.34-1.734.491-1.537.2-2.043.2h-7.875Zm29.742-.004h4.57v14.778h-4.57Zm-10.164 11.61h2.34q2.144 0 2.144-1.55 0-1.36-2.144-1.36h-2.34Zm0-5.899h2.437c2.243 0 3.899.395 4.98 1.18q1.63 1.185 1.63 3.68c0 1.367-.5 2.406-1.492 3.129-.993.718-2.41 1.082-4.266 1.082h-7.852V391.23h4.563Zm0 0"/><path fill="#FFFFFF" d="m754.313 391.23-5.56 8.18v-8.18h-4.3v14.778h4.313l5.515-8.113v8.113h4.29V391.23Zm19.57 8.098h5c1.687 0 2.879-.305 3.574-.902.691-.606 1.035-1.41 1.035-2.422q0-1.414-1.023-2.27c-.688-.566-1.89-.855-3.61-.855h-4.976Zm0-12.512h4.262c1.523 0 2.59-.261 3.187-.793.602-.523.898-1.289.898-2.285 0-.922-.296-1.644-.898-2.168q-.896-.78-3.129-.78h-4.32Zm-9.887-12.445h18.352c3.054 0 5.402.754 7.039 2.274q2.46 2.281 2.46 5.628c0 1.88-.585 3.489-1.757 4.836-.781.891-1.914 1.602-3.422 2.114 2.277.55 3.965 1.496 5.035 2.836q1.617 2.003 1.617 5.039.002 2.472-1.144 4.445a8.43 8.43 0 0 1-3.137 3.117c-.824.48-2.066.832-3.726 1.047-2.211.281-3.668.43-4.391.43h-16.926Zm32.223 0h26.277v6.777h-16.453v5.036h15.281v6.48h-15.281v6.274h16.941v7.199H796.22Zm-114.359 8.895h1.835q.93 0 1.305-.332c.258-.223.383-.516.383-.887 0-.344-.125-.625-.375-.832q-.375-.315-1.324-.313h-1.825Zm0-4.586h1.562c.558 0 .95-.094 1.168-.29.222-.195.328-.472.328-.843 0-.336-.106-.602-.328-.79q-.33-.287-1.145-.288h-1.586Zm-3.63-4.567h6.73q1.683 0 2.587.832c.598.563.902 1.25.902 2.07 0 .684-.215 1.278-.648 1.77-.281.324-.703.59-1.25.781q1.25.298 1.844 1.036c.394.492.59 1.105.59 1.851q.002.904-.419 1.625a3.1 3.1 0 0 1-1.152 1.149c-.3.171-.754.3-1.363.375-.809.109-1.344.168-1.614.168h-6.207Zm17.88 7.211-1.282-4.187-1.273 4.187Zm.75 2.512h-4.079l-.57 1.934h-3.672l4.367-11.657h3.93l4.375 11.657h-3.766Zm36.363-2.512-1.282-4.187-1.273 4.187Zm.75 2.512h-4.078l-.575 1.934h-3.672l4.372-11.657h3.933l4.371 11.657h-3.765Zm2.449-9.723h10.937v2.875h-3.664v8.782h-3.601v-8.782h-3.672Zm15.355 9.153h1.84q1.695.001 1.696-1.227c0-.71-.567-1.07-1.696-1.07h-1.84Zm0-4.653h1.922c1.766 0 3.07.309 3.926.93q1.278.939 1.277 2.902c0 1.078-.386 1.895-1.172 2.465-.78.57-1.902.86-3.367.86h-6.18v-11.657h3.594Zm0 0"/><path fill="#FFFFFF" d="M723.516 385.77h2.898l.703-2.688h-1.965v-8.965h-3.593v8.781h-3.954v-8.78h-3.59v11.652Zm-17.864-8.645v-.148h2.887v6.105h-3.7c.54-2.363.813-4.344.813-5.957m-2.586 8.645h10.336v-2.688h-1.261v-8.969h-9.758v2.602q.001 3.541-1.012 6.367h-1.2v2.688Zm-33.191-8.645v-.148h2.883v6.105h-3.7c.544-2.363.817-4.344.817-5.957m-2.586 8.645h11.746v-2.688h-2.672v-8.969h-9.761v2.602q-.001 3.541-1.004 6.367h-1.203v2.688Zm0 0"/></svg>