<svg xmlns="http://www.w3.org/2000/svg" width="462" height="304" viewBox="452 232 462 304"><path fill="#ec6608" d="M832.992 459.164h22.856v27.93l23.922-27.93h30.359l-26.953 27.883 28.144 46.027h-28.113l-15.539-30.344-11.82 12.375v17.97h-22.856Zm-366.094-20.656 3.625 1.094c-.242 1.02-.625 1.867-1.152 2.55a4.95 4.95 0 0 1-1.95 1.547q-1.166.526-2.972.524-2.181-.001-3.566-.641c-.922-.422-1.719-1.16-2.395-2.23q-1.003-1.6-1.004-4.094 0-3.33 1.77-5.113 1.77-1.789 5.012-1.79 2.532.001 3.98 1.028c.965.68 1.688 1.726 2.156 3.144l-3.664.82q-.187-.614-.402-.902a2.36 2.36 0 0 0-.848-.738 2.4 2.4 0 0 0-1.12-.254c-.946 0-1.665.379-2.165 1.133q-.564.844-.566 2.644c0 1.485.226 2.508.68 3.06.449.554 1.081.823 1.898.823q1.191 0 1.797-.668.607-.672.886-1.937m15.93-7.93h12.598v3.317h-4.227v10.101h-4.144v-10.101h-4.227Zm25.684 0h6.886c1.5 0 2.625.363 3.372 1.074.742.72 1.117 1.73 1.117 3.047 0 1.356-.407 2.41-1.219 3.172-.82.766-2.055 1.145-3.727 1.145h-2.265v4.98h-4.164Zm4.164 5.723h1.011q1.2.002 1.684-.418.482-.416.484-1.07 0-.628-.418-1.063c-.285-.297-.812-.441-1.582-.441h-1.18Zm28.09 5.48h-4.703l-.665 2.215h-4.226l5.039-13.418h4.535l5.031 13.418h-4.336Zm-.871-2.898-1.47-4.82-1.46 4.82Zm17.145-8.305h4.562l2.37 4.133 2.31-4.133h4.515l-4.168 6.5 4.562 6.918h-4.664l-2.632-4.308-2.653 4.308h-4.625l4.625-6.988Zm26.198 6.719c0-2.188.602-3.89 1.828-5.113 1.215-1.215 2.914-1.829 5.09-1.829 2.227 0 3.95.598 5.157 1.797q1.81 1.801 1.808 5.036c0 1.57-.262 2.851-.789 3.855a5.6 5.6 0 0 1-2.285 2.344c-1 .558-2.238.836-3.727.836q-2.266.002-3.75-.723c-.992-.48-1.793-1.246-2.41-2.285q-.924-1.57-.922-3.918m4.14.02c0 1.351.255 2.331.759 2.921q.75.886 2.047.887c.89 0 1.574-.29 2.062-.871q.728-.867.73-3.117 0-1.893-.761-2.766c-.508-.586-1.195-.875-2.07-.875-.832 0-1.504.29-2.004.883q-.762.892-.762 2.937m23.215-6.738h7.754c1.297 0 2.289.328 2.984.965a3.14 3.14 0 0 1 1.04 2.383c0 .797-.25 1.472-.747 2.043-.328.375-.809.676-1.441.894.96.23 1.664.63 2.125 1.196.453.562.675 1.265.675 2.12 0 .696-.16 1.325-.484 1.876a3.56 3.56 0 0 1-1.328 1.32c-.348.2-.867.348-1.57.438-.938.125-1.547.183-1.856.183h-7.152Zm4.176 5.274h1.804q.972-.002 1.352-.336c.254-.223.383-.543.383-.97 0-.394-.13-.694-.383-.917q-.38-.333-1.328-.332h-1.828Zm0 5.261h2.113c.715 0 1.215-.125 1.508-.375.293-.261.437-.597.437-1.023 0-.395-.14-.715-.43-.953q-.439-.363-1.523-.364h-2.105Zm29.847.668h-4.703l-.664 2.215h-4.23l5.046-13.418h4.528l5.031 13.418h-4.336Zm-.867-2.898-1.473-4.82-1.468 4.82Zm26.11 5.113v-5.441h-.364q-.57-.001-1.016.308-.325.24-.746 1.035l-2.214 4.098h-4.676l2-3.887q.151-.291.578-.836c.289-.351.515-.59.668-.699q.331-.252 1.074-.492-.92-.215-1.453-.531a3.76 3.76 0 0 1-1.3-1.32c-.321-.54-.477-1.176-.477-1.922q-.002-1.282.617-2.176.627-.89 1.64-1.219c.676-.223 1.657-.336 2.934-.336h6.902v13.418Zm0-10.71h-1.813q-1.127 0-1.54.35c-.277.235-.41.571-.41 1.005q0 .438.258.777c.176.23.399.367.668.422.547.125.907.187 1.098.187h1.738Zm35.656-2.708h4.144v5.074l4.34-5.074h5.512l-4.903 5.063 5.121 8.355h-5.105l-2.824-5.512-2.14 2.239v3.273h-4.145Zm26.293 6.719q-.001-3.28 1.832-5.113c1.214-1.215 2.91-1.829 5.086-1.829 2.234 0 3.949.598 5.16 1.797q1.81 1.801 1.808 5.036c0 1.57-.265 2.851-.789 3.855a5.66 5.66 0 0 1-2.289 2.344q-1.488.836-3.726.836c-1.508 0-2.762-.239-3.746-.723-.993-.48-1.797-1.246-2.41-2.285-.614-1.047-.926-2.352-.926-3.918m4.144.02c0 1.351.25 2.331.754 2.921q.757.886 2.047.887c.887 0 1.578-.29 2.062-.871q.732-.867.73-3.117.002-1.893-.757-2.766c-.508-.586-1.203-.875-2.066-.875-.836 0-1.504.29-2.016.883q-.755.892-.754 2.937m23.157-6.738h5.46l2.09 8.168 2.09-8.168h5.445v13.418h-3.398v-10.223l-2.61 10.223h-3.074l-2.605-10.223v10.223h-3.399Zm41.796 13.418h-4.133v-10.121h-4.558v10.121h-4.13v-13.418h12.821Zm22.227-2.215h-4.707l-.66 2.215h-4.23l5.038-13.418h4.535l5.028 13.418h-4.332Zm-.867-2.898-1.48-4.82-1.462 4.82Zm18.444-8.305h4.145v4.703h4.528v-4.703h4.164v13.418h-4.164v-5.422h-4.528v5.422h-4.144Zm39.65 0v13.418h-3.903v-7.363l-5.012 7.363h-3.914v-13.418h3.91v7.43l5.051-7.43Zm21.675 13.418v-5.441h-.363q-.568-.001-1.012.308-.332.24-.754 1.035l-2.203 4.098h-4.687l2.004-3.887q.145-.291.578-.836c.293-.351.511-.59.668-.699.226-.168.582-.332 1.078-.492q-.932-.215-1.453-.531a3.75 3.75 0 0 1-1.309-1.32c-.316-.54-.473-1.176-.473-1.922 0-.856.203-1.579.618-2.176.418-.594.96-1 1.64-1.219q1.015-.335 2.934-.336h6.902v13.418Zm0-10.71h-1.812c-.758 0-1.266.116-1.54.35q-.41.353-.41 1.005 0 .438.258.777c.172.23.395.367.672.422.535.125.906.187 1.098.187h1.734Zm-364.461-63.341-41.472 41.477-41.5-41.477 41.5-41.484Zm-.226-93.808-41.477 41.488-41.48-41.488 41.48-41.477Zm47.035 47.019-41.496 41.485-41.496-41.485 41.496-41.48Zm47.012 47.004-41.508 41.496-41.473-41.496 41.473-41.469Zm-.247-93.781-41.5 41.473-41.468-41.473 41.468-41.496Zm95.469 93.566-41.488 41.477-41.5-41.477 41.5-41.484Zm-.242-93.808-41.48 41.488-41.493-41.488 41.493-41.477Zm47.023 47.019-41.5 41.485-41.453-41.485 41.453-41.48Zm47.016 47.004-41.48 41.496-41.489-41.496 41.489-41.469Zm-.238-93.781-41.489 41.473-41.453-41.473 41.453-41.496Zm92.07 93.707-41.48 41.469-41.493-41.47 41.493-41.487Zm-.223-93.793-41.488 41.465-41.484-41.465 41.484-41.488ZM662.785 494.074l-4.7 4.688-4.694-4.688 4.695-4.703Zm-173.398 38.621h-10.59v-25.91h-11.668v25.91h-10.59v-34.351h32.848Zm4.636-34.351h28.422v7.332h-17.797v5.445h16.528v7.008h-16.528v6.777h18.32v7.79h-28.945Zm32.204 0h17.64c3.84 0 6.723.914 8.633 2.734 1.914 1.832 2.867 4.426 2.867 7.793q-.001 5.203-3.125 8.121c-2.086 1.957-5.262 2.93-9.547 2.93h-5.808v12.773h-10.66Zm10.66 14.636h2.601c2.043 0 3.48-.359 4.309-1.066.828-.715 1.238-1.621 1.238-2.73 0-1.079-.351-1.993-1.078-2.739-.715-.754-2.066-1.125-4.043-1.125h-3.027Zm21.679-14.636h19.848c3.305 0 5.844.816 7.613 2.457q2.659 2.468 2.657 6.09c0 2.03-.637 3.773-1.895 5.226-.848.969-2.082 1.738-3.703 2.293 2.469.59 4.285 1.613 5.445 3.059 1.164 1.449 1.746 3.27 1.746 5.453 0 1.781-.41 3.387-1.238 4.808a9.15 9.15 0 0 1-3.39 3.372q-1.335.773-4.028 1.125c-2.39.312-3.969.468-4.75.468h-18.305Zm10.692 13.457h4.61c1.648 0 2.8-.281 3.444-.852q.973-.854.973-2.476 0-1.494-.972-2.344-.966-.844-3.38-.844h-4.675Zm0 13.531h5.406q2.743-.002 3.863-.977c.754-.648 1.125-1.523 1.125-2.617 0-1.02-.37-1.836-1.109-2.457-.738-.613-2.04-.926-3.898-.926h-5.387Zm34.808-13.719h5.676c5.203 0 9.059.91 11.578 2.742 2.512 1.836 3.77 4.692 3.77 8.555 0 3.168-1.153 5.598-3.453 7.27q-3.462 2.514-9.93 2.515h-18.23v-34.351h10.59Zm0 13.719h5.442q4.992.001 4.992-3.613 0-3.164-4.992-3.164h-5.442Zm23.637-26.988h10.621v34.351h-10.62Zm0 0"/><path fill="#ec6608" d="m665.898 498.344-12.921 19.011v-19.011h-10.004v34.351h10.03l12.821-18.863v18.863h9.973v-34.351Zm22.504-39.199h42.657c7.113 0 12.57 1.765 16.375 5.28q5.706 5.296 5.707 13.095.002 6.545-4.075 11.238c-1.812 2.07-4.464 3.719-7.953 4.93 5.305 1.273 9.203 3.464 11.707 6.574s3.758 7.008 3.758 11.715c0 3.832-.887 7.273-2.668 10.332-1.777 3.058-4.203 5.48-7.297 7.257-1.906 1.106-4.793 1.914-8.652 2.418q-7.695 1.008-10.211 1.008h-39.348Zm22.98 28.937h9.911c3.547 0 6.02-.617 7.414-1.84q2.085-1.84 2.086-5.316 0-3.228-2.086-5.043c-1.394-1.207-3.812-1.813-7.27-1.813h-10.054Zm0 29.074h11.63c3.922 0 6.695-.699 8.304-2.093q2.417-2.099 2.418-5.625 0-3.287-2.394-5.278c-1.59-1.328-4.383-1.996-8.375-1.996h-11.582Zm51.927-58.011h61.093v15.761h-38.257v11.703h35.527v15.063h-35.527v14.578h39.378v16.742H763.31Zm-274.259-.59h15.641q3.91-.001 6.008 1.937c1.387 1.293 2.086 2.895 2.086 4.797 0 1.602-.492 2.977-1.496 4.121q-.994 1.143-2.914 1.813c1.945.464 3.375 1.27 4.293 2.406.922 1.144 1.379 2.574 1.379 4.3 0 1.395-.324 2.665-.977 3.786a7.3 7.3 0 0 1-2.672 2.66c-.703.41-1.765.703-3.175.887q-2.826.37-3.743.37h-14.43Zm8.427 10.61h3.628c1.305 0 2.215-.228 2.727-.669.508-.457.758-1.105.758-1.957 0-.789-.25-1.402-.758-1.851-.512-.438-1.402-.665-2.672-.665h-3.683Zm0 10.663h4.265c1.438 0 2.453-.262 3.04-.77.593-.515.89-1.199.89-2.066 0-.805-.297-1.453-.875-1.937-.586-.48-1.61-.73-3.07-.73h-4.25Zm34.871 1.332h-9.48l-1.333 4.473h-8.539l10.149-27.074h9.148l10.168 27.074h-8.758Zm-1.743-5.855-2.98-9.73-2.953 9.73Zm88.012 5.855h-9.488l-1.328 4.473h-8.531l10.148-27.074h9.148l10.164 27.074h-8.761Zm-1.746-5.855-2.98-9.73-2.95 9.73Zm7.445-16.75h25.43v6.68h-8.527v20.398h-8.38v-20.399h-8.523Zm35.68 10.457h4.473q6.147 0 9.125 2.164c1.98 1.449 2.976 3.695 2.976 6.742 0 2.5-.91 4.406-2.73 5.73q-2.725 1.986-7.817 1.985h-14.375v-27.074h8.348Zm0 10.812h4.29c2.62 0 3.933-.941 3.933-2.844q-.001-2.501-3.934-2.5h-4.289Zm0 0"/><path fill="#ec6608" d="M594.313 485.633h6.73l1.64-6.238h-4.566v-20.836h-8.351v20.418h-9.2v-20.418h-8.343v27.074Zm-47.532 0h24.016v-6.238h-2.93v-20.836h-22.683v6.039q0 8.23-2.348 14.797h-2.79v6.238Zm6.004-20.074v-.352h6.711v14.188h-8.605c1.265-5.485 1.894-10.094 1.894-13.836m-89.175 20.074h27.304v-6.238H484.7v-20.836h-22.68v6.039c0 5.488-.785 10.418-2.347 14.797h-2.79v6.238Zm6.011-20.074v-.352h6.703v14.188h-8.601c1.261-5.485 1.898-10.094 1.898-13.836"/></svg>